<svg width="48" height="48" viewBox="0 0 48 48" fill="none" xmlns="http://www.w3.org/2000/svg">
<path d="M8.649 10.27L14.857 28.896L9.923 40H20H32H40V36H16.078L18.3 31H38.441L44.775 12H13.441L11.441 6H4V10H8.333L8.649 10.27Z" fill="black"/>
<path d="M20 44C21.1046 44 22 43.1046 22 42C22 40.8954 21.1046 40 20 40C18.8954 40 18 40.8954 18 42C18 43.1046 18.8954 44 20 44Z" fill="black"/>
<path d="M32 44C33.1046 44 34 43.1046 34 42C34 40.8954 33.1046 40 32 40C30.8954 40 30 40.8954 30 42C30 43.1046 30.8954 44 32 44Z" fill="black"/>
</svg>
