<svg width="48" height="48" viewBox="0 0 48 48" fill="none" xmlns="http://www.w3.org/2000/svg">
<path d="M24 29C26.7614 29 29 26.7614 29 24C29 21.2386 26.7614 19 24 19C21.2386 19 19 21.2386 19 24C19 26.7614 21.2386 29 24 29Z" fill="black"/>
<path d="M37 29C39.7614 29 42 26.7614 42 24C42 21.2386 39.7614 19 37 19C34.2386 19 32 21.2386 32 24C32 26.7614 34.2386 29 37 29Z" fill="black"/>
<path d="M11 29C13.7614 29 16 26.7614 16 24C16 21.2386 13.7614 19 11 19C8.23858 19 6 21.2386 6 24C6 26.7614 8.23858 29 11 29Z" fill="black"/>
</svg>
